# xmcd CD database file
#
# Track frame offsets:
#	150
#	20997
#	40072
#	60835
#
# Disc length: 1062 seconds
#
# Revision: 0
# Processed by: cddbd v1.5.1PL2 Copyright (c) Steve Scherf et al.
# Submitted via: CDex 1.51
#
DISCID=2a042404
DTITLE=鈴木亜美  - AROUND THE WORLD
DYEAR=1900
DGENRE=JPop
TTITLE0=AROUND THE WORLD
TTITLE1=Times -Dub's Pop Radio Edit Remix-
TTITLE2=AROUND THE WORLD(Instrumental)
TTITLE3=Times -Dub's Pop Radio Edit Remix-(instrumental)
EXTD=
EXTT0=
EXTT1=
EXTT2=
EXTT3=
PLAYORDER=
